# xmcd CD database file
#
# Track frame offsets:
#	150
#	21830
#	40280
#	57538
#	87769
#	113340
#	143090
#	159814
#	180514
#	197702
#	214473
#	252603
#
# Disc length: 4053 seconds
#
# Revision: 0
# Processed by: cddbd v1.5.2PL0 Copyright (c) Steve Scherf et al.
# Submitted via: CDex 1.51
#
DISCID=a20fd30c
DTITLE=Malcolm Potter - You and Me
DYEAR=2006
DGENRE=Jazz
TTITLE0=I've Seen Signs
TTITLE1=Don't You Dare
TTITLE2=You and Me
TTITLE3=All of Me
TTITLE4=Let the Song Tear Your Heart
TTITLE5=If You Weren't There
TTITLE6=A Foll Again
TTITLE7=Roxanne
TTITLE8=My Little Man
TTITLE9=Sweet Georgia Brown
TTITLE10=Mr. Jones and Me
TTITLE11=Vidéo Live
EXTD=YEAR: 2006
EXTT0=
EXTT1=
EXTT2=
EXTT3=
EXTT4=
EXTT5=
EXTT6=
EXTT7=
EXTT8=
EXTT9=
EXTT10=
EXTT11=
PLAYORDER=
